<svg xmlns="http://www.w3.org/2000/svg" xmlns:xlink="http://www.w3.org/1999/xlink" width="1080" zoomAndPan="magnify" viewBox="0 0 810 809.999993" height="1080" preserveAspectRatio="xMidYMid meet" version="1.0"><defs><clipPath id="6a5efd72eb"><path d="M 130.40625 222.816406 L 360 222.816406 L 360 539 L 130.40625 539 Z M 130.40625 222.816406 " clip-rule="nonzero"/></clipPath><clipPath id="00d2c39400"><path d="M 330 222.816406 L 560 222.816406 L 560 539 L 330 539 Z M 330 222.816406 " clip-rule="nonzero"/></clipPath><clipPath id="32778065d1"><path d="M 529 222.816406 L 758 222.816406 L 758 539 L 529 539 Z M 529 222.816406 " clip-rule="nonzero"/></clipPath></defs><g clip-path="url(#6a5efd72eb)"><path fill="#ffffff" d="M 130.769531 538.941406 L 243.039062 538.941406 L 359.128906 379.613281 L 242.996094 222.816406 L 130.6875 222.816406 L 239.078125 381.355469 Z M 130.769531 538.941406 " fill-opacity="1" fill-rule="evenodd"/></g><g clip-path="url(#00d2c39400)"><path fill="#ffffff" d="M 439.117188 381.355469 L 330.761719 222.816406 L 443.035156 222.816406 L 559.125 379.613281 L 443.074219 538.941406 L 330.84375 538.941406 Z M 439.117188 381.355469 " fill-opacity="1" fill-rule="evenodd"/></g><g clip-path="url(#32778065d1)"><path fill="#ffffff" d="M 637.683594 381.355469 L 529.328125 222.816406 L 641.597656 222.816406 L 757.691406 379.613281 L 641.640625 538.941406 L 529.410156 538.941406 Z M 637.683594 381.355469 " fill-opacity="1" fill-rule="evenodd"/></g></svg>