<?xml version="1.0" encoding="UTF-8" standalone="no"?>
<svg
   xmlns:dc="http://purl.org/dc/elements/1.1/"
   xmlns:cc="http://creativecommons.org/ns#"
   xmlns:rdf="http://www.w3.org/1999/02/22-rdf-syntax-ns#"
   xmlns:svg="http://www.w3.org/2000/svg"
   xmlns="http://www.w3.org/2000/svg"
   xmlns:sodipodi="http://sodipodi.sourceforge.net/DTD/sodipodi-0.dtd"
   xmlns:inkscape="http://www.inkscape.org/namespaces/inkscape"
   width="1792"
   height="1792"
   id="arrow"
   version="1.1"
   sodipodi:docname="arrow.svg"
   inkscape:version="0.92.4 (5da689c313, 2019-01-14)">
  <metadata
     id="metadata9">
    <rdf:RDF>
      <cc:Work
         rdf:about="">
        <dc:format>image/svg+xml</dc:format>
        <dc:type
           rdf:resource="http://purl.org/dc/dcmitype/StillImage" />
        <dc:title></dc:title>
      </cc:Work>
    </rdf:RDF>
  </metadata>
  <defs
     id="defs7" />
  <sodipodi:namedview
     pagecolor="#ffffff"
     bordercolor="#666666"
     borderopacity="1"
     objecttolerance="10"
     gridtolerance="10"
     guidetolerance="10"
     inkscape:pageopacity="0"
     inkscape:pageshadow="2"
     inkscape:window-width="1825"
     inkscape:window-height="1046"
     id="namedview5"
     showgrid="false"
     inkscape:zoom="0.093123438"
     inkscape:cx="-2978.2338"
     inkscape:cy="757.8681"
     inkscape:window-x="-11"
     inkscape:window-y="-11"
     inkscape:window-maximized="1"
     inkscape:current-layer="arrow" />
  <path
     d="M 384,960 V 832 q 0,-26 19,-45 19,-19 45,-19 H 950 L 761,579 q -19,-19 -19,-45 0,-26 19,-45 l 91,-91 q 18,-18 45,-18 27,0 45,18 l 362,362 91,91 q 18,18 18,45 0,27 -18,45 l -91,91 -362,362 q -18,18 -45,18 -27,0 -45,-18 l -91,-91 q -18,-18 -18,-45 0,-27 18,-45 L 950,1024 H 448 q -26,0 -45,-19 -19,-19 -19,-45 z M 128,896 q 0,209 103,385.5 103,176.5 279.5,279.5 176.5,103 385.5,103 209,0 385.5,-103 Q 1458,1458 1561,1281.5 1664,1105 1664,896 1664,687 1561,510.5 1458,334 1281.5,231 1105,128 896,128 687,128 510.5,231 334,334 231,510.5 128,687 128,896 Z"
     id="path2"
     inkscape:connector-curvature="0" />
</svg>
